{"title":"Scared.Shrekless.2010.DVDRip.XviD-SPRiNTER","uid":6768902,"size":183597630,"categoryP":"video","categoryS":"movie_clips","magnet":"?xt=urn:btih:193bdd17731912eafb428bdb692b4c85d2d978ca&amp;dn=Scared.Shrekless.2010.DVDRip.XviD-SPRiNTER&amp;tr=udp%3A%2F%2Ftracker.openbittorrent.com%3A80&amp;tr=udp%3A%2F%2Fopen.demonii.com%3A1337&amp;tr=udp%3A%2F%2Ftracker.coppersurfer.tk%3A6969&amp;tr=udp%3A%2F%2Fexodus.desync.com%3A6969","seeders":0,"leechers":0,"uploader":"Sunblock.","files":2,"time":1319503717,"description":"sharedump.org\n\n\nPlot:\n\nShrek gets in the Halloween spirit by challenging his fairytale friends to come up with scary stories for a contest. But the gang learn that they\\'ll have to spend the night in Lord Farquaad\\'s haunted castle before the winner is named. \n\n\n\n--------------\n\n\n\normat                           : AVI\nFormat/Info                      : Audio Video Interleave\nFile size                        : 175 MiB\nDuration                         : 25mn 31s\nOverall bit rate mode            : Variable\nOverall bit rate                 : 959 Kbps\nWriting application              : VirtualDubMod 1.5.10.2 (build 2540/release)\nWriting library                  : VirtualDubMod build 2540/release\n\nVideo\nID                               : 0\nFormat                           : MPEG-4 Visual\nFormat profile                   : Advanced Simple@L5\nFormat settings, BVOP            : 2\nFormat settings, QPel            : No\nFormat settings, GMC             : No warppoints\nFormat settings, Matrix          : Default (H.263)\nCodec ID                         : XVID\nCodec ID/Hint                    : XviD\nDuration                         : 25mn 31s\nBit rate                         : 812 Kbps\nWidth                            : 576 pixels\nHeight                           : 320 pixels\nDisplay aspect ratio             : 16:9\nFrame rate                       : 23.976 fps\nColor space                      : YUV\nChroma subsampling               : 4:2:0\nBit depth                        : 8 bits\nScan type                        : Progressive\nCompression mode                 : Lossy\nBits/(Pixel*Frame)               : 0.184\nStream size                      : 148 MiB (85%)\nWriting library                  : XviD 61\n\nAudio\nID                               : 1\nFormat                           : MPEG Audio\nFormat version                   : Version 1\nFormat profile                   : Layer 3\nMode                             : Joint stereo\nMode extension                   : MS Stereo\nCodec ID                         : 55\nCodec ID/Hint                    : MP3\nDuration                         : 25mn 30s\nBit rate mode                    : Variable\nBit rate                         : 134 Kbps\nMinimum bit rate                 : 128 Kbps\nChannel(s)                       : 2 channels\nSampling rate                    : 48.0 KHz\nCompression mode                 : Lossy\nStream size                      : 24.5 MiB (14%)\nAlignment                        : Aligned on interleaves\nInterleave, duration             : 24 ms (0.58 video frame)\nInterleave, preload duration     : 137 ms\nWriting library                  : LAME3.95\nEncoding settings                : -m j -V 4 -q 3 -lowpass 18 --vbr-old -b 128","torrent":{"xt":"urn:btih:193bdd17731912eafb428bdb692b4c85d2d978ca","amp;dn":"Scared.Shrekless.2010.DVDRip.XviD-SPRiNTER","amp;tr":["udp%3A%2F%2Ftracker.openbittorrent.com%3A80","udp%3A%2F%2Fopen.demonii.com%3A1337","udp%3A%2F%2Ftracker.coppersurfer.tk%3A6969","udp%3A%2F%2Fexodus.desync.com%3A6969"],"infoHash":"193bdd17731912eafb428bdb692b4c85d2d978ca","infoHashBuffer":{"type":"Buffer","data":[25,59,221,23,115,25,18,234,251,66,139,219,105,43,76,133,210,217,120,202]},"announce":[],"urlList":[]}}